<?xml version="1.0" encoding="utf-8"?>
<!-- Generator: Adobe Illustrator 16.0.0, SVG Export Plug-In . SVG Version: 6.00 Build 0)  -->
<!DOCTYPE svg PUBLIC "-//W3C//DTD SVG 1.1//EN" "http://www.w3.org/Graphics/SVG/1.1/DTD/svg11.dtd">
<svg version="1.1" id="图层_1" xmlns="http://www.w3.org/2000/svg" xmlns:xlink="http://www.w3.org/1999/xlink" x="0px" y="0px"
	 width="34.016px" height="34.016px" viewBox="-1.008 -1.008 34.016 34.016" enable-background="new -1.008 -1.008 34.016 34.016"
	 xml:space="preserve">
<g>
	<path fill="#CD4E41" d="M10.963,0.811c1.899-0.664,3.93-0.902,5.936-0.794c5.457,0.232,10.615,3.635,13.045,8.515
		c-0.506,0.113-1.025,0.072-1.539,0.078c-3.693,0.008-7.387,0.019-11.08,0.025c-1.321-0.21-2.707-0.119-3.953,0.391
		c-1.879,0.736-3.404,2.32-4.071,4.226c-0.667,1.849-0.497,3.956,0.396,5.7C7.444,15,5.122,11.085,2.839,7.15
		C4.738,4.21,7.641,1.923,10.963,0.811L10.963,0.811z"/>
	<path fill="#1E985C" d="M0.895,11.523c0.411-1.548,1.08-3.026,1.944-4.374C5.122,11.085,7.444,15,9.697,18.952
		c0.772,1.455,2.057,2.637,3.583,3.262c1.979,0.826,4.335,0.688,6.201-0.375c0.92-0.506,1.686-1.246,2.324-2.072
		c-2.174,3.838-4.377,7.66-6.561,11.492C11.939,31.12,8.7,29.872,6.14,27.782c-3.05-2.465-5.125-6.107-5.641-9.998
		C0.244,15.699,0.325,13.552,0.895,11.523L0.895,11.523z"/>
	<path fill="#F1F1F1" d="M13.372,9.026c1.246-0.51,2.632-0.602,3.953-0.391c2.004,0.403,3.824,1.668,4.838,3.45
		c1.385,2.344,1.254,5.481-0.357,7.684c-0.639,0.824-1.404,1.564-2.324,2.07c-1.865,1.063-4.221,1.201-6.201,0.375
		c-1.525-0.625-2.81-1.807-3.583-3.262c-0.893-1.744-1.063-3.852-0.396-5.7C9.967,11.346,11.492,9.762,13.372,9.026 M15.041,10.03
		c-2.106,0.333-3.93,1.965-4.502,4.018c-0.465,1.607-0.193,3.418,0.767,4.797c1.03,1.527,2.843,2.494,4.688,2.469
		c1.684,0.023,3.348-0.77,4.404-2.076c0.854-1.033,1.322-2.379,1.281-3.72c-0.012-1.806-0.973-3.565-2.467-4.576
		C18.014,10.104,16.48,9.789,15.041,10.03L15.041,10.03z"/>
	<path fill="#F2C345" d="M17.324,8.635c3.693-0.006,7.387-0.017,11.08-0.025c0.514-0.006,1.033,0.035,1.539-0.078
		c1.24,2.386,1.807,5.104,1.678,7.787c-0.109,3.332-1.377,6.602-3.482,9.18c-2.125,2.617-5.111,4.533-8.393,5.324
		c-1.467,0.383-2.992,0.477-4.503,0.436c2.185-3.832,4.388-7.654,6.562-11.49c1.611-2.203,1.742-5.34,0.357-7.684
		C21.148,10.303,19.328,9.038,17.324,8.635z"/>
	<path fill="#4F7FC0" d="M15.041,10.03c1.439-0.241,2.973,0.075,4.172,0.912c1.494,1.011,2.455,2.77,2.467,4.576
		c0.041,1.341-0.428,2.687-1.281,3.72c-1.057,1.307-2.721,2.1-4.404,2.076c-1.845,0.025-3.659-0.941-4.688-2.469
		c-0.96-1.379-1.232-3.19-0.767-4.797C11.111,11.995,12.935,10.363,15.041,10.03L15.041,10.03z"/>
</g>
</svg>
